<svg width="32" height="32" viewBox="0 0 32 32" fill="none" xmlns="http://www.w3.org/2000/svg">
<path d="M5.862 10.314L15.232 19.536C15.4364 19.7383 15.7124 19.8517 16 19.8517C16.2876 19.8517 16.5636 19.7383 16.768 19.536L26.14 10.316C26.3457 10.1139 26.6226 10.0006 26.911 10.0006C27.1994 10.0006 27.4763 10.1139 27.682 10.316C27.7833 10.4148 27.8638 10.5328 27.9188 10.6632C27.9737 10.7935 28.0021 10.9336 28.0021 11.075C28.0021 11.2165 27.9737 11.3565 27.9188 11.4869C27.8638 11.6172 27.7833 11.7353 27.682 11.834L18.314 21.054C17.697 21.6599 16.8668 21.9993 16.002 21.9993C15.1372 21.9993 14.307 21.6599 13.69 21.054L4.322 11.834C4.2204 11.7352 4.13963 11.6171 4.08448 11.4865C4.02933 11.356 4.00092 11.2157 4.00092 11.074C4.00092 10.9323 4.02933 10.792 4.08448 10.6615C4.13963 10.531 4.2204 10.4128 4.322 10.314C4.52771 10.1119 4.80459 9.9986 5.093 9.9986C5.38141 9.9986 5.65829 10.1119 5.864 10.314" fill="white"/>
</svg>
