<svg width="352" height="77" viewBox="0 0 352 77" fill="none" xmlns="http://www.w3.org/2000/svg">
<mask id="path-1-inside-1_51_3" fill="white">
<path d="M74 38.3035C74 46.9425 70.9358 55.3014 65.3525 61.8936C59.7691 68.4858 52.0285 72.8839 43.5074 74.3058C34.9863 75.7276 26.2371 74.081 18.8158 69.6588C11.3946 65.2366 5.78241 58.3254 2.97748 50.1545L37.5 38.3035H74Z"/>
</mask>
<path d="M74 38.3035C74 46.9425 70.9358 55.3014 65.3525 61.8936C59.7691 68.4858 52.0285 72.8839 43.5074 74.3058C34.9863 75.7276 26.2371 74.081 18.8158 69.6588C11.3946 65.2366 5.78241 58.3254 2.97748 50.1545L37.5 38.3035H74Z" stroke="white" stroke-width="4" mask="url(#path-1-inside-1_51_3)"/>
<circle cx="37.5" cy="38.3035" r="35.5" fill="#161616"/>
<path d="M20.2383 49.8035V31.7588H13.0285V27.5654H32.6624V31.7588H25.4526V49.8035H20.2383Z" fill="white"/>
<path d="M52.4787 27.5654H57.6929V49.8035H52.4787V27.5654ZM42.2433 49.8035H37.0291V27.5654H42.2433V49.8035ZM52.8649 40.6859H41.8571V36.3336H52.8649V40.6859Z" fill="white"/>
<path d="M4.81438 35.2626C4.80035 35.5376 4.74223 35.7998 4.63999 36.0492C4.53436 36.2948 4.4066 36.4829 4.25672 36.6133L3.95915 36.4448C4.09439 36.3207 4.21223 36.1516 4.31267 35.9375C4.40971 35.7196 4.46444 35.4891 4.47684 35.2458C4.48871 35.0132 4.46975 34.8231 4.41997 34.6757C4.3668 34.5247 4.29192 34.4131 4.19532 34.3412C4.09891 34.2657 3.98998 34.225 3.86854 34.2189C3.7221 34.2117 3.60207 34.2481 3.50846 34.3283C3.41503 34.4049 3.3399 34.509 3.28307 34.6405C3.22266 34.7718 3.16868 34.9175 3.12112 35.0778C3.07356 35.238 3.02421 35.3981 2.97308 35.5581C2.91838 35.718 2.85002 35.8648 2.768 35.9986C2.68617 36.1288 2.58237 36.2332 2.45661 36.3118C2.32747 36.3867 2.16288 36.4192 1.96286 36.4092C1.77713 36.4 1.6099 36.344 1.46117 36.2412C1.30904 36.1346 1.19167 35.9786 1.10905 35.773C1.02286 35.5673 0.987758 35.3075 1.00376 34.9938C1.01436 34.7858 1.05524 34.5811 1.12639 34.3796C1.19396 34.178 1.28331 34.0057 1.39444 33.8628L1.70381 34.0107C1.58856 34.164 1.50136 34.3293 1.44218 34.5066C1.38319 34.6804 1.34947 34.8501 1.34102 35.0158C1.3297 35.2379 1.35071 35.4228 1.40406 35.5703C1.45741 35.7179 1.53408 35.8295 1.63406 35.9051C1.73066 35.9771 1.84325 36.0163 1.97183 36.0227C2.11828 36.0299 2.23821 35.9952 2.33164 35.9186C2.42525 35.8384 2.50047 35.7326 2.55731 35.6011C2.61432 35.4661 2.66661 35.3185 2.71417 35.1583C2.76173 34.9981 2.81277 34.8398 2.86729 34.6834C2.92199 34.5236 2.99026 34.3785 3.0721 34.2483C3.15055 34.1143 3.25256 34.0098 3.37813 33.9348C3.50389 33.8562 3.66499 33.8218 3.86144 33.8316C4.0436 33.8406 4.21074 33.8984 4.36287 34.0049C4.51142 34.1113 4.6287 34.2691 4.71471 34.4783C4.79733 34.6839 4.83055 34.9453 4.81438 35.2626Z" fill="white"/>
<path d="M5.32243 30.3657C5.26511 30.6388 5.16626 30.8835 5.02587 31.0999C4.88271 31.3122 4.70895 31.4875 4.50458 31.626C4.29743 31.7603 4.07164 31.8529 3.8272 31.9038C3.57999 31.9506 3.32156 31.9464 3.05191 31.8913C2.78226 31.8362 2.54517 31.739 2.34063 31.5999C2.13332 31.4565 1.96339 31.283 1.83085 31.0793C1.69553 30.8713 1.60665 30.6423 1.56421 30.3921C1.51826 30.1412 1.52431 29.8774 1.58235 29.6009C1.63967 29.3279 1.73991 29.0852 1.88307 28.873C2.02273 28.66 2.19438 28.486 2.39803 28.351C2.60239 28.2126 2.82819 28.12 3.0754 28.0732C3.32334 28.0229 3.58214 28.0254 3.85178 28.0805C4.12143 28.1357 4.35991 28.2349 4.56723 28.3782C4.77526 28.5181 4.94519 28.6916 5.07701 28.8988C5.20955 29.1026 5.29879 29.3299 5.34474 29.5808C5.38718 29.831 5.37974 30.0927 5.32243 30.3657ZM4.97573 30.2948C5.02144 30.0771 5.02675 29.8691 4.99166 29.6708C4.9538 29.4684 4.88072 29.2859 4.77244 29.1231C4.66139 28.9562 4.52279 28.8162 4.35665 28.7029C4.18701 28.5889 3.99188 28.5093 3.77125 28.4642C3.55063 28.4191 3.34129 28.4159 3.14323 28.4547C2.94166 28.4928 2.75808 28.567 2.59249 28.6774C2.42411 28.7835 2.28357 28.9224 2.17085 29.094C2.05536 29.2615 1.97475 29.4541 1.92905 29.6718C1.88334 29.8896 1.87942 30.0997 1.91728 30.3021C1.95165 30.5038 2.02436 30.688 2.13541 30.855C2.24369 31.0177 2.38229 31.1578 2.55121 31.2752C2.71735 31.3885 2.91073 31.4677 3.13135 31.5128C3.34847 31.5572 3.55781 31.5604 3.75938 31.5223C3.96167 31.4807 4.147 31.4069 4.31537 31.3007C4.48097 31.1904 4.62187 31.0498 4.73809 30.8789C4.85081 30.7073 4.93003 30.5126 4.97573 30.2948Z" fill="white"/>
<path d="M4.72116 26.3664L5.41718 24.5317L5.7387 24.6505L5.04268 26.4852L4.72116 26.3664ZM6.5498 26.997L6.4106 27.3639L2.89393 26.0642L3.79688 23.6841L4.1184 23.8029L3.35466 25.8161L6.5498 26.997Z" fill="white"/>
<path d="M8.19654 22.7189L5.22272 21.0683L4.57587 22.2036L4.27662 22.0375L5.76491 19.4254L6.06416 19.5915L5.41731 20.7268L8.39112 22.3774L8.19654 22.7189Z" fill="white"/>
<path d="M9.66749 19.5996L5.93302 18.2912L6.18501 17.9748L9.69684 19.2116L9.57085 19.3697L7.54772 16.2641L7.77318 15.9811L11.2983 17.2011L11.1789 17.351L9.13921 14.2662L9.37462 13.9706L11.5441 17.2437L11.2855 17.5684L7.93695 16.418L8.00326 16.3347L9.92279 19.2791L9.66749 19.5996Z" fill="white"/>
<path d="M13.3035 15.4915L11.9979 11.6253L12.2843 11.3617L16.1007 12.9167L15.7947 13.1984L12.2376 11.716L12.3553 11.6076L13.6056 15.2134L13.3035 15.4915ZM13.1136 14.3123L12.9804 14.0006L14.5772 12.5308L14.883 12.6837L13.1136 14.3123Z" fill="white"/>
<path d="M17.2786 11.8358L15.1692 8.76958L16.3319 7.99028C16.5952 7.8138 16.8507 7.70445 17.0983 7.66223C17.3439 7.61709 17.5713 7.63965 17.7804 7.72993C17.9904 7.8153 18.1717 7.96895 18.3244 8.19089C18.4731 8.40699 18.5499 8.62859 18.5548 8.85568C18.5607 9.07788 18.4981 9.29477 18.367 9.50637C18.2339 9.71504 18.0357 9.90762 17.7724 10.0841L16.7916 10.7415L16.8356 10.4944L17.607 11.6157L17.2786 11.8358ZM19.4 10.4141L17.8357 9.83685L18.1908 9.5989L19.7595 10.1731L19.4 10.4141ZM16.8537 10.5206L16.6017 10.4655L17.5737 9.81409C17.8843 9.60588 18.0733 9.38107 18.1407 9.13966C18.211 8.89627 18.1628 8.65338 17.996 8.411C17.8273 8.1657 17.6153 8.03041 17.3602 8.00514C17.108 7.97789 16.8266 8.06837 16.5159 8.27657L15.544 8.92797L15.585 8.6765L16.8537 10.5206Z" fill="white"/>
<path d="M20.6227 7.13518L22.4164 6.29628L22.5611 6.59772L20.7674 7.43662L20.6227 7.13518ZM21.4035 8.66253L23.4444 7.708L23.5914 8.01422L21.1917 9.13654L19.5838 5.78718L21.9107 4.69888L22.0577 5.0051L20.0895 5.92563L21.4035 8.66253Z" fill="white"/>
<path d="M30.2108 5.83474L29.7072 2.16186L31.2223 1.95949C31.6192 1.90647 31.9773 1.93878 32.2966 2.05642C32.619 2.1701 32.8824 2.35398 33.0868 2.60807C33.2913 2.86216 33.4182 3.16935 33.4676 3.52965C33.517 3.88994 33.4774 4.21938 33.3487 4.51797C33.22 4.81656 33.0158 5.06468 32.7362 5.26232C32.4596 5.456 32.1228 5.57935 31.7259 5.63237L30.2108 5.83474ZM30.5582 5.44639L31.6586 5.2994C31.9882 5.25538 32.2648 5.1543 32.4886 4.99619C32.7154 4.8341 32.8807 4.63212 32.9847 4.39026C33.0882 4.14491 33.1198 3.87531 33.0795 3.58148C33.0388 3.28415 32.9357 3.03255 32.7703 2.82667C32.605 2.62078 32.3914 2.47121 32.1296 2.37795C31.8708 2.28071 31.5767 2.25411 31.2471 2.29813L30.1467 2.44512L30.5582 5.44639Z" fill="white"/>
<path d="M35.9356 3.4673L37.9201 3.50547L37.9135 3.83897L35.929 3.8008L35.9356 3.4673ZM35.9448 5.17802L38.2028 5.22145L38.1961 5.56025L35.5412 5.50919L35.6144 1.80353L38.1888 1.85305L38.1821 2.19185L36.0046 2.14996L35.9448 5.17802Z" fill="white"/>
<path d="M41.8681 6.06753L40.8782 2.13347L41.3009 2.20659L42.2231 5.90854L41.9906 5.86832L44.1437 2.6983L44.54 2.76685L42.2538 6.13425L41.8681 6.06753Z" fill="white"/>
<path d="M46.9153 5.12705L48.7947 5.75721L48.686 6.07305L46.8066 5.44289L46.9153 5.12705ZM46.3986 6.76L48.537 7.47702L48.4266 7.79788L45.9123 6.95483L47.1202 3.44544L49.5583 4.26295L49.4479 4.58381L47.3856 3.89233L46.3986 6.76Z" fill="white"/>
<path d="M50.7079 8.69163L52.4469 5.40665L52.7987 5.5881L51.2187 8.57274L53.0825 9.53392L52.9235 9.83426L50.7079 8.69163Z" fill="white"/>
<path d="M56.3918 12.0422C56.1644 11.8767 55.9804 11.6858 55.8399 11.4695C55.7044 11.2524 55.6156 11.0233 55.5736 10.7822C55.5366 10.5403 55.5457 10.2991 55.601 10.0586C55.6613 9.81742 55.7731 9.58744 55.9366 9.3687C56.1 9.14996 56.2885 8.97797 56.5021 8.85273C56.7207 8.72675 56.9514 8.64691 57.1943 8.61322C57.4423 8.57878 57.6902 8.59482 57.9383 8.66134C58.1884 8.72502 58.4286 8.84066 58.6589 9.00828C58.8863 9.1738 59.0677 9.3651 59.2032 9.58218C59.3409 9.79642 59.4293 10.0231 59.4684 10.2621C59.5104 10.5032 59.5013 10.7444 59.441 10.9856C59.3836 11.2289 59.2732 11.4599 59.1097 11.6787C58.9463 11.8974 58.7553 12.0698 58.5367 12.1958C58.321 12.3238 58.0903 12.4037 57.8445 12.4353C57.6015 12.469 57.355 12.454 57.1049 12.3903C56.8568 12.3238 56.6191 12.2078 56.3918 12.0422ZM56.6019 11.761C56.7832 11.893 56.9725 11.9847 57.1696 12.0361C57.3717 12.0867 57.5703 12.0975 57.7653 12.0684C57.9654 12.0386 58.1522 11.9729 58.3259 11.8713C58.5018 11.7668 58.6565 11.6251 58.7903 11.4461C58.924 11.2671 59.0144 11.0807 59.0615 10.8869C59.1107 10.6903 59.1191 10.4946 59.0867 10.3C59.0594 10.1047 58.9903 9.92063 58.8795 9.74783C58.7736 9.57429 58.6301 9.42152 58.4487 9.28952C58.2674 9.15752 58.0757 9.0662 57.8736 9.01555C57.6736 8.96207 57.4735 8.95024 57.2735 8.98006C57.0785 9.00914 56.8916 9.07486 56.7129 9.17723C56.5392 9.27886 56.3855 9.41916 56.2517 9.59813C56.1201 9.77426 56.0297 9.96065 55.9805 10.1573C55.9342 10.3561 55.9247 10.5531 55.9521 10.7485C55.9844 10.943 56.0549 11.1282 56.1637 11.3038C56.2745 11.4766 56.4206 11.629 56.6019 11.761Z" fill="white"/>
<path d="M58.954 13.9889L61.6201 11.3788L62.6099 12.3637C62.834 12.5868 62.9899 12.8145 63.0774 13.047C63.1675 13.277 63.1868 13.5017 63.1353 13.7212C63.0889 13.9406 62.9692 14.1448 62.7762 14.3337C62.5883 14.5177 62.3818 14.6329 62.1565 14.6794C61.9363 14.726 61.7088 14.7051 61.474 14.6168C61.2392 14.5285 61.0097 14.3728 60.7855 14.1497L59.9507 13.319L60.2086 13.3125L59.2336 14.267L58.954 13.9889ZM60.1858 13.3349L60.1982 13.0766L61.0255 13.8999C61.29 14.163 61.5473 14.3063 61.7976 14.3298C62.0529 14.3533 62.2859 14.2619 62.4967 14.0556C62.71 13.8468 62.8058 13.6163 62.784 13.3641C62.7648 13.1144 62.623 12.858 62.3586 12.5948L61.5313 11.7716L61.7892 11.7651L60.1858 13.3349Z" fill="white"/>
<path d="M64.098 16.504L65.263 18.09L64.9894 18.2858L63.8244 16.6998L64.098 16.504ZM62.7203 17.5421L64.046 19.3468L63.768 19.5457L62.2094 17.4238L65.2496 15.2483L66.761 17.3059L66.483 17.5048L65.2046 15.7644L62.7203 17.5421Z" fill="white"/>
<path d="M64.7787 21.2785L68.121 19.589L68.7617 20.8237C68.9068 21.1033 68.9853 21.367 68.9974 21.6148C69.0126 21.8609 68.9619 22.0808 68.8455 22.2745C68.7338 22.4698 68.557 22.6285 68.3151 22.7508C68.0796 22.8699 67.8473 22.9179 67.6184 22.8948C67.3943 22.8733 67.1839 22.7853 66.9872 22.6309C66.7938 22.4749 66.6245 22.257 66.4794 21.9774L65.939 20.9359L66.182 21.0094L64.9597 21.6272L64.7787 21.2785ZM65.9476 23.5312L66.7202 22.0698L66.9158 22.4469L66.1457 23.9129L65.9476 23.5312ZM66.1534 21.0238L66.2398 20.7839L66.7753 21.8159C66.9465 22.1458 67.1493 22.3586 67.3837 22.4542C67.6198 22.553 67.87 22.5356 68.1342 22.4021C68.4016 22.2669 68.5636 22.0759 68.6204 21.8291C68.6788 21.5854 68.6224 21.2987 68.4512 20.9688L67.9157 19.9367L68.1635 20.0077L66.1534 21.0238Z" fill="white"/>
<path d="M92.84 38V20.96H86.12V17H104.42V20.96H97.7V38H92.84ZM103.22 38L112.58 17H117.38L126.77 38H121.67L113.99 19.46H115.91L108.2 38H103.22ZM107.9 33.5L109.19 29.81H119.99L121.31 33.5H107.9ZM133.258 38.36C131.838 38.36 130.528 38.1 129.328 37.58C128.148 37.04 127.178 36.28 126.418 35.3L129.118 32.06C129.698 32.82 130.308 33.4 130.948 33.8C131.588 34.18 132.278 34.37 133.018 34.37C134.998 34.37 135.988 33.21 135.988 30.89V20.9H128.608V17H140.818V30.62C140.818 33.22 140.178 35.16 138.898 36.44C137.618 37.72 135.738 38.36 133.258 38.36ZM145.619 38V17H155.879C158.519 17 160.499 17.5 161.819 18.5C163.159 19.5 163.829 20.82 163.829 22.46C163.829 23.56 163.559 24.52 163.019 25.34C162.479 26.14 161.739 26.76 160.799 27.2C159.859 27.64 158.779 27.86 157.559 27.86L158.129 26.63C159.449 26.63 160.619 26.85 161.639 27.29C162.659 27.71 163.449 28.34 164.009 29.18C164.589 30.02 164.879 31.05 164.879 32.27C164.879 34.07 164.169 35.48 162.749 36.5C161.329 37.5 159.239 38 156.479 38H145.619ZM150.449 34.34H156.119C157.379 34.34 158.329 34.14 158.969 33.74C159.629 33.32 159.959 32.66 159.959 31.76C159.959 30.88 159.629 30.23 158.969 29.81C158.329 29.37 157.379 29.15 156.119 29.15H150.089V25.61H155.279C156.459 25.61 157.359 25.41 157.979 25.01C158.619 24.59 158.939 23.96 158.939 23.12C158.939 22.3 158.619 21.69 157.979 21.29C157.359 20.87 156.459 20.66 155.279 20.66H150.449V34.34ZM168.558 38V17H173.418V38H168.558ZM178.402 38V17H187.492C189.372 17 190.992 17.31 192.352 17.93C193.712 18.53 194.762 19.4 195.502 20.54C196.242 21.68 196.612 23.04 196.612 24.62C196.612 26.18 196.242 27.53 195.502 28.67C194.762 29.79 193.712 30.65 192.352 31.25C190.992 31.85 189.372 32.15 187.492 32.15H181.102L183.262 30.02V38H178.402ZM191.752 38L186.502 30.38H191.692L197.002 38H191.752ZM183.262 30.56L181.102 28.28H187.222C188.722 28.28 189.842 27.96 190.582 27.32C191.322 26.66 191.692 25.76 191.692 24.62C191.692 23.46 191.322 22.56 190.582 21.92C189.842 21.28 188.722 20.96 187.222 20.96H181.102L183.262 18.65V30.56ZM223.359 17H228.219V38H223.359V17ZM213.819 38H208.959V17H213.819V38ZM223.719 29.39H213.459V25.28H223.719V29.39ZM243.387 38.36C241.727 38.36 240.187 38.09 238.767 37.55C237.367 37.01 236.147 36.25 235.107 35.27C234.087 34.29 233.287 33.14 232.707 31.82C232.147 30.5 231.867 29.06 231.867 27.5C231.867 25.94 232.147 24.5 232.707 23.18C233.287 21.86 234.097 20.71 235.137 19.73C236.177 18.75 237.397 17.99 238.797 17.45C240.197 16.91 241.717 16.64 243.357 16.64C245.017 16.64 246.537 16.91 247.917 17.45C249.317 17.99 250.527 18.75 251.547 19.73C252.587 20.71 253.397 21.86 253.977 23.18C254.557 24.48 254.847 25.92 254.847 27.5C254.847 29.06 254.557 30.51 253.977 31.85C253.397 33.17 252.587 34.32 251.547 35.3C250.527 36.26 249.317 37.01 247.917 37.55C246.537 38.09 245.027 38.36 243.387 38.36ZM243.357 34.22C244.297 34.22 245.157 34.06 245.937 33.74C246.737 33.42 247.437 32.96 248.037 32.36C248.637 31.76 249.097 31.05 249.417 30.23C249.757 29.41 249.927 28.5 249.927 27.5C249.927 26.5 249.757 25.59 249.417 24.77C249.097 23.95 248.637 23.24 248.037 22.64C247.457 22.04 246.767 21.58 245.967 21.26C245.167 20.94 244.297 20.78 243.357 20.78C242.417 20.78 241.547 20.94 240.747 21.26C239.967 21.58 239.277 22.04 238.677 22.64C238.077 23.24 237.607 23.95 237.267 24.77C236.947 25.59 236.787 26.5 236.787 27.5C236.787 28.48 236.947 29.39 237.267 30.23C237.607 31.05 238.067 31.76 238.647 32.36C239.247 32.96 239.947 33.42 240.747 33.74C241.547 34.06 242.417 34.22 243.357 34.22ZM265.4 38.36C263.72 38.36 262.11 38.14 260.57 37.7C259.03 37.24 257.79 36.65 256.85 35.93L258.5 32.27C259.4 32.91 260.46 33.44 261.68 33.86C262.92 34.26 264.17 34.46 265.43 34.46C266.39 34.46 267.16 34.37 267.74 34.19C268.34 33.99 268.78 33.72 269.06 33.38C269.34 33.04 269.48 32.65 269.48 32.21C269.48 31.65 269.26 31.21 268.82 30.89C268.38 30.55 267.8 30.28 267.08 30.08C266.36 29.86 265.56 29.66 264.68 29.48C263.82 29.28 262.95 29.04 262.07 28.76C261.21 28.48 260.42 28.12 259.7 27.68C258.98 27.24 258.39 26.66 257.93 25.94C257.49 25.22 257.27 24.3 257.27 23.18C257.27 21.98 257.59 20.89 258.23 19.91C258.89 18.91 259.87 18.12 261.17 17.54C262.49 16.94 264.14 16.64 266.12 16.64C267.44 16.64 268.74 16.8 270.02 17.12C271.3 17.42 272.43 17.88 273.41 18.5L271.91 22.19C270.93 21.63 269.95 21.22 268.97 20.96C267.99 20.68 267.03 20.54 266.09 20.54C265.15 20.54 264.38 20.65 263.78 20.87C263.18 21.09 262.75 21.38 262.49 21.74C262.23 22.08 262.1 22.48 262.1 22.94C262.1 23.48 262.32 23.92 262.76 24.26C263.2 24.58 263.78 24.84 264.5 25.04C265.22 25.24 266.01 25.44 266.87 25.64C267.75 25.84 268.62 26.07 269.48 26.33C270.36 26.59 271.16 26.94 271.88 27.38C272.6 27.82 273.18 28.4 273.62 29.12C274.08 29.84 274.31 30.75 274.31 31.85C274.31 33.03 273.98 34.11 273.32 35.09C272.66 36.07 271.67 36.86 270.35 37.46C269.05 38.06 267.4 38.36 265.4 38.36ZM284.531 38.36C282.851 38.36 281.241 38.14 279.701 37.7C278.161 37.24 276.921 36.65 275.981 35.93L277.631 32.27C278.531 32.91 279.591 33.44 280.811 33.86C282.051 34.26 283.301 34.46 284.561 34.46C285.521 34.46 286.291 34.37 286.871 34.19C287.471 33.99 287.911 33.72 288.191 33.38C288.471 33.04 288.611 32.65 288.611 32.21C288.611 31.65 288.391 31.21 287.951 30.89C287.511 30.55 286.931 30.28 286.211 30.08C285.491 29.86 284.691 29.66 283.811 29.48C282.951 29.28 282.081 29.04 281.201 28.76C280.341 28.48 279.551 28.12 278.831 27.68C278.111 27.24 277.521 26.66 277.061 25.94C276.621 25.22 276.401 24.3 276.401 23.18C276.401 21.98 276.721 20.89 277.361 19.91C278.021 18.91 279.001 18.12 280.301 17.54C281.621 16.94 283.271 16.64 285.251 16.64C286.571 16.64 287.871 16.8 289.151 17.12C290.431 17.42 291.561 17.88 292.541 18.5L291.041 22.19C290.061 21.63 289.081 21.22 288.101 20.96C287.121 20.68 286.161 20.54 285.221 20.54C284.281 20.54 283.511 20.65 282.911 20.87C282.311 21.09 281.881 21.38 281.621 21.74C281.361 22.08 281.231 22.48 281.231 22.94C281.231 23.48 281.451 23.92 281.891 24.26C282.331 24.58 282.911 24.84 283.631 25.04C284.351 25.24 285.141 25.44 286.001 25.64C286.881 25.84 287.751 26.07 288.611 26.33C289.491 26.59 290.291 26.94 291.011 27.38C291.731 27.82 292.311 28.4 292.751 29.12C293.211 29.84 293.441 30.75 293.441 31.85C293.441 33.03 293.111 34.11 292.451 35.09C291.791 36.07 290.801 36.86 289.481 37.46C288.181 38.06 286.531 38.36 284.531 38.36ZM294.001 38L303.361 17H308.161L317.551 38H312.451L304.771 19.46H306.691L298.981 38H294.001ZM298.681 33.5L299.971 29.81H310.771L312.091 33.5H298.681ZM319.73 38V17H324.59V38H319.73ZM329.574 38V17H333.594L345.984 32.12H344.034V17H348.834V38H344.844L332.424 22.88H334.374V38H329.574Z" fill="white"/>
<path d="M89.006 56.61H95.828V57.438H89.006V56.61ZM89.114 63H88.196V50.4H96.62V51.228H89.114V63ZM105.743 63.09C104.183 63.09 102.953 62.634 102.053 61.722C101.153 60.81 100.703 59.454 100.703 57.654V50.4H101.621V57.618C101.621 59.19 101.981 60.354 102.701 61.11C103.421 61.866 104.441 62.244 105.761 62.244C107.069 62.244 108.083 61.866 108.803 61.11C109.523 60.354 109.883 59.19 109.883 57.618V50.4H110.801V57.654C110.801 59.454 110.351 60.81 109.451 61.722C108.551 62.634 107.315 63.09 105.743 63.09ZM116.345 63V50.4H117.263V62.172H124.517V63H116.345ZM128.134 63V50.4H129.052V62.172H136.306V63H128.134ZM138.562 58.572V57.762H143.188V58.572H138.562ZM150.736 63.09C149.8 63.09 148.912 62.934 148.072 62.622C147.244 62.298 146.602 61.884 146.146 61.38L146.56 60.696C146.992 61.14 147.58 61.518 148.324 61.83C149.08 62.13 149.878 62.28 150.718 62.28C151.558 62.28 152.242 62.172 152.77 61.956C153.31 61.728 153.706 61.428 153.958 61.056C154.222 60.684 154.354 60.27 154.354 59.814C154.354 59.274 154.21 58.842 153.922 58.518C153.634 58.194 153.256 57.936 152.788 57.744C152.32 57.552 151.81 57.39 151.258 57.258C150.706 57.126 150.148 56.988 149.584 56.844C149.02 56.688 148.504 56.49 148.036 56.25C147.568 56.01 147.19 55.686 146.902 55.278C146.626 54.858 146.488 54.318 146.488 53.658C146.488 53.058 146.644 52.506 146.956 52.002C147.268 51.498 147.754 51.09 148.414 50.778C149.074 50.466 149.92 50.31 150.952 50.31C151.648 50.31 152.332 50.412 153.004 50.616C153.688 50.82 154.27 51.096 154.75 51.444L154.408 52.182C153.88 51.822 153.31 51.558 152.698 51.39C152.098 51.21 151.516 51.12 150.952 51.12C150.148 51.12 149.482 51.234 148.954 51.462C148.426 51.69 148.036 51.996 147.784 52.38C147.532 52.752 147.406 53.172 147.406 53.64C147.406 54.18 147.544 54.612 147.82 54.936C148.108 55.26 148.486 55.518 148.954 55.71C149.422 55.902 149.938 56.064 150.502 56.196C151.066 56.328 151.624 56.472 152.176 56.628C152.728 56.772 153.238 56.964 153.706 57.204C154.174 57.444 154.552 57.768 154.84 58.176C155.128 58.584 155.272 59.112 155.272 59.76C155.272 60.348 155.11 60.9 154.786 61.416C154.462 61.92 153.964 62.328 153.292 62.64C152.632 62.94 151.78 63.09 150.736 63.09ZM161.889 63V51.228H157.353V50.4H167.343V51.228H162.807V63H161.889ZM168.14 63L173.936 50.4H174.854L180.65 63H179.66L174.188 50.976H174.584L169.13 63H168.14ZM170.264 59.454L170.57 58.68H178.112L178.418 59.454H170.264ZM189.35 63.09C188.414 63.09 187.544 62.934 186.74 62.622C185.948 62.298 185.258 61.848 184.67 61.272C184.082 60.696 183.626 60.024 183.302 59.256C182.978 58.476 182.816 57.624 182.816 56.7C182.816 55.776 182.978 54.93 183.302 54.162C183.626 53.382 184.082 52.704 184.67 52.128C185.27 51.552 185.966 51.108 186.758 50.796C187.55 50.472 188.414 50.31 189.35 50.31C190.238 50.31 191.066 50.454 191.834 50.742C192.614 51.03 193.28 51.468 193.832 52.056L193.256 52.65C192.716 52.122 192.116 51.744 191.456 51.516C190.808 51.276 190.118 51.156 189.386 51.156C188.582 51.156 187.832 51.294 187.136 51.57C186.452 51.846 185.852 52.236 185.336 52.74C184.832 53.244 184.436 53.832 184.148 54.504C183.872 55.176 183.734 55.908 183.734 56.7C183.734 57.492 183.872 58.224 184.148 58.896C184.436 59.568 184.832 60.156 185.336 60.66C185.852 61.164 186.452 61.554 187.136 61.83C187.832 62.106 188.582 62.244 189.386 62.244C190.118 62.244 190.808 62.13 191.456 61.902C192.116 61.662 192.716 61.272 193.256 60.732L193.832 61.326C193.28 61.914 192.614 62.358 191.834 62.658C191.066 62.946 190.238 63.09 189.35 63.09ZM198.959 59.814L198.923 58.662L206.951 50.4H208.067L202.451 56.214L201.929 56.772L198.959 59.814ZM198.167 63V50.4H199.085V63H198.167ZM207.329 63L201.659 56.52L202.289 55.854L208.445 63H207.329ZM217.966 63V50.4H222.952C224.284 50.4 225.454 50.67 226.462 51.21C227.47 51.75 228.25 52.494 228.802 53.442C229.366 54.39 229.648 55.476 229.648 56.7C229.648 57.924 229.366 59.01 228.802 59.958C228.25 60.906 227.47 61.65 226.462 62.19C225.454 62.73 224.284 63 222.952 63H217.966ZM218.884 62.172H222.88C224.068 62.172 225.1 61.938 225.976 61.47C226.852 61.002 227.53 60.36 228.01 59.544C228.49 58.716 228.73 57.768 228.73 56.7C228.73 55.632 228.49 54.69 228.01 53.874C227.53 53.046 226.852 52.398 225.976 51.93C225.1 51.462 224.068 51.228 222.88 51.228H218.884V62.172ZM234.907 56.196H241.729V57.006H234.907V56.196ZM235.015 62.172H242.791V63H234.097V50.4H242.521V51.228H235.015V62.172ZM250.75 63L245.134 50.4H246.142L251.506 62.442H250.948L256.33 50.4H257.284L251.668 63H250.75ZM261.386 56.196H268.208V57.006H261.386V56.196ZM261.494 62.172H269.27V63H260.576V50.4H269V51.228H261.494V62.172ZM273.877 63V50.4H274.795V62.172H282.049V63H273.877ZM290.766 63.09C289.83 63.09 288.96 62.934 288.156 62.622C287.364 62.298 286.668 61.848 286.068 61.272C285.48 60.684 285.024 60.006 284.7 59.238C284.376 58.458 284.214 57.612 284.214 56.7C284.214 55.788 284.376 54.948 284.7 54.18C285.024 53.4 285.48 52.722 286.068 52.146C286.668 51.558 287.364 51.108 288.156 50.796C288.96 50.472 289.83 50.31 290.766 50.31C291.702 50.31 292.566 50.472 293.358 50.796C294.162 51.108 294.858 51.552 295.446 52.128C296.034 52.704 296.49 53.382 296.814 54.162C297.15 54.93 297.318 55.776 297.318 56.7C297.318 57.624 297.15 58.476 296.814 59.256C296.49 60.024 296.034 60.696 295.446 61.272C294.858 61.848 294.162 62.298 293.358 62.622C292.566 62.934 291.702 63.09 290.766 63.09ZM290.766 62.244C291.57 62.244 292.314 62.106 292.998 61.83C293.682 61.554 294.276 61.164 294.78 60.66C295.284 60.156 295.674 59.568 295.95 58.896C296.238 58.224 296.382 57.492 296.382 56.7C296.382 55.896 296.238 55.164 295.95 54.504C295.674 53.832 295.284 53.244 294.78 52.74C294.276 52.236 293.682 51.846 292.998 51.57C292.314 51.294 291.57 51.156 290.766 51.156C289.962 51.156 289.218 51.294 288.534 51.57C287.85 51.846 287.25 52.236 286.734 52.74C286.23 53.244 285.834 53.832 285.546 54.504C285.27 55.164 285.132 55.896 285.132 56.7C285.132 57.492 285.27 58.224 285.546 58.896C285.834 59.568 286.23 60.156 286.734 60.66C287.25 61.164 287.85 61.554 288.534 61.83C289.218 62.106 289.962 62.244 290.766 62.244ZM301.762 63V50.4H306.28C307.336 50.4 308.242 50.568 308.998 50.904C309.754 51.24 310.336 51.726 310.744 52.362C311.152 52.986 311.356 53.748 311.356 54.648C311.356 55.524 311.152 56.28 310.744 56.916C310.336 57.552 309.754 58.038 308.998 58.374C308.242 58.71 307.336 58.878 306.28 58.878H302.266L302.68 58.446V63H301.762ZM302.68 58.5L302.266 58.05H306.28C307.636 58.05 308.662 57.756 309.358 57.168C310.066 56.568 310.42 55.728 310.42 54.648C310.42 53.556 310.066 52.716 309.358 52.128C308.662 51.528 307.636 51.228 306.28 51.228H302.266L302.68 50.778V58.5ZM316.524 56.196H323.346V57.006H316.524V56.196ZM316.632 62.172H324.408V63H315.714V50.4H324.138V51.228H316.632V62.172ZM329.015 63V50.4H333.533C334.589 50.4 335.495 50.568 336.251 50.904C337.007 51.24 337.589 51.726 337.997 52.362C338.405 52.986 338.609 53.748 338.609 54.648C338.609 55.524 338.405 56.28 337.997 56.916C337.589 57.54 337.007 58.026 336.251 58.374C335.495 58.71 334.589 58.878 333.533 58.878H329.519L329.933 58.446V63H329.015ZM337.763 63L334.487 58.428H335.531L338.807 63H337.763ZM329.933 58.5L329.519 58.068H333.533C334.889 58.068 335.915 57.768 336.611 57.168C337.319 56.568 337.673 55.728 337.673 54.648C337.673 53.556 337.319 52.716 336.611 52.128C335.915 51.528 334.889 51.228 333.533 51.228H329.519L329.933 50.778V58.5Z" fill="white"/>
</svg>
